<svg width="59" height="52" viewBox="0 0 59 52" fill="none" xmlns="http://www.w3.org/2000/svg">
<symbol viewBox="0 0 59 52"  xmlns="http://www.w3.org/2000/svg" id="tg">
<g> 
<path fill-rule="evenodd" clip-rule="evenodd" d="M10.8052 49.4451V44.4048H14.1654V47.765H54.7114V33.1984C55.6262 31.4736 57.5788 27.268 58.0716 24.2438V49.4451C58.0716 50.3729 57.3193 51.1251 56.3915 51.1251H12.4853C11.5575 51.1251 10.8052 50.3729 10.8052 49.4451Z" fill="black"/>
<path fill-rule="evenodd" clip-rule="evenodd" d="M2.40483 44.4048H10.8052H14.1654H46.311C46.704 44.4048 47.0846 44.267 47.3866 44.0154C49.4063 42.3332 52.5347 38.3281 54.7114 33.1984C55.6262 31.4736 57.5788 27.268 58.0716 24.2438V14.1633H54.7114H14.1654H10.8052V15.8434C10.8052 28.2256 5.65915 37.7512 1.32924 41.4341C0.785793 41.8869 0.584295 42.6315 0.824994 43.2967C1.06592 43.9618 1.69741 44.4048 2.40483 44.4048ZM54.6816 17.5224H14.1366C13.8594 25.8883 11.3935 34.4608 6.22635 41.0446H45.6522C50.2125 36.5659 54.303 28.1802 54.6816 17.5224Z" fill="white"/>
<path fill-rule="evenodd" clip-rule="evenodd" d="M2.40483 44.4048H10.8052H14.1654H46.311C46.704 44.4048 47.0846 44.267 47.3866 44.0154C49.4063 42.3332 52.5347 38.3281 54.7114 33.1984C55.6262 31.4736 57.5788 27.268 58.0716 24.2438V14.1633H54.7114H14.1654H10.8052V15.8434C10.8052 28.2256 5.65915 37.7512 1.32924 41.4341C0.785793 41.8869 0.584295 42.6315 0.824994 43.2967C1.06592 43.9618 1.69741 44.4048 2.40483 44.4048ZM54.6816 17.5224H14.1366C13.8594 25.8883 11.3935 34.4608 6.22635 41.0446H45.6522C50.2125 36.5659 54.303 28.1802 54.6816 17.5224Z" fill="#FFC700"/>
<path d="M36.1185 4.08282V2.40274C36.1185 1.47489 35.3663 0.722656 34.4384 0.722656C33.5106 0.722656 32.7583 1.47489 32.7583 2.40274V4.08282V7.44299V9.12307C32.7583 10.0509 33.5106 10.8032 34.4384 10.8032C35.3663 10.8032 36.1185 10.0509 36.1185 9.12307V7.44299V4.08282Z" fill="white"/>
<path d="M36.1185 4.08282V2.40274C36.1185 1.47489 35.3663 0.722656 34.4384 0.722656C33.5106 0.722656 32.7583 1.47489 32.7583 2.40274V4.08282V7.44299V9.12307C32.7583 10.0509 33.5106 10.8032 34.4384 10.8032C35.3663 10.8032 36.1185 10.0509 36.1185 9.12307V7.44299V4.08282Z" fill="#FFC700"/>
<path fill-rule="evenodd" clip-rule="evenodd" d="M10.8052 5.7629V14.1633H14.1654V7.44299H20.9977V4.08282H12.4853C11.5575 4.08282 10.8052 4.83505 10.8052 5.7629ZM24.3579 4.08282V7.44299H32.7583V4.08282H24.3579ZM44.6309 7.44299H36.1185V4.08282H44.6309V7.44299ZM47.9911 7.44299H54.7114V14.1633H58.0716V5.7629C58.0716 4.83505 57.3193 4.08282 56.3915 4.08282H47.9911V7.44299Z" fill="white"/>
<path d="M47.9911 4.08282V2.40274C47.9911 1.47489 47.2388 0.722656 46.311 0.722656C45.3831 0.722656 44.6309 1.47489 44.6309 2.40274V4.08282V7.44299V9.12307C44.6309 10.0509 45.3831 10.8032 46.311 10.8032C47.2388 10.8032 47.9911 10.0509 47.9911 9.12307V7.44299V4.08282Z" fill="white"/>
<path d="M47.9911 4.08282V2.40274C47.9911 1.47489 47.2388 0.722656 46.311 0.722656C45.3831 0.722656 44.6309 1.47489 44.6309 2.40274V4.08282V7.44299V9.12307C44.6309 10.0509 45.3831 10.8032 46.311 10.8032C47.2388 10.8032 47.9911 10.0509 47.9911 9.12307V7.44299V4.08282Z" fill="black"/>
<path d="M24.3579 4.08282V2.40274C24.3579 1.47489 23.6057 0.722656 22.6778 0.722656C21.75 0.722656 20.9977 1.47489 20.9977 2.40274V4.08282V7.44299V9.12307C20.9977 10.0509 21.75 10.8032 22.6778 10.8032C23.6057 10.8032 24.3579 10.0509 24.3579 9.12307V7.44299V4.08282Z" fill="white"/>
<path d="M24.3579 4.08282V2.40274C24.3579 1.47489 23.6057 0.722656 22.6778 0.722656C21.75 0.722656 20.9977 1.47489 20.9977 2.40274V4.08282V7.44299V9.12307C20.9977 10.0509 21.75 10.8032 22.6778 10.8032C23.6057 10.8032 24.3579 10.0509 24.3579 9.12307V7.44299V4.08282Z" fill="#FFC700"/>
<g/>
<symbol>
</svg>
